<svg width="14" height="15" viewBox="0 0 14 15" fill="none" xmlns="http://www.w3.org/2000/svg">
<path d="M0.666748 7.50002C0.666748 4.51469 0.666748 3.02135 1.59408 2.09402C2.52141 1.16669 4.01408 1.16669 7.00008 1.16669C9.98542 1.16669 11.4787 1.16669 12.4061 2.09402C13.3334 3.02135 13.3334 4.51402 13.3334 7.50002C13.3334 10.4854 13.3334 11.9787 12.4061 12.906C11.4787 13.8334 9.98608 13.8334 7.00008 13.8334C4.01475 13.8334 2.52141 13.8334 1.59408 12.906C0.666748 11.9787 0.666748 10.486 0.666748 7.50002Z" stroke="black" stroke-linecap="round" stroke-linejoin="round"/>
<path d="M7.00537 6.50534C6.74015 6.50534 6.4858 6.6107 6.29826 6.79823C6.11073 6.98577 6.00537 7.24012 6.00537 7.50534C6.00537 7.77056 6.11073 8.02491 6.29826 8.21244C6.4858 8.39998 6.74015 8.50534 7.00537 8.50534C7.27059 8.50534 7.52494 8.39998 7.71248 8.21244C7.90001 8.02491 8.00537 7.77056 8.00537 7.50534C8.00537 7.24012 7.90001 6.98577 7.71248 6.79823C7.52494 6.6107 7.27059 6.50534 7.00537 6.50534ZM7.00537 6.50534V3M9.5 10.5L7.7107 8.21467" stroke="black" stroke-linecap="round" stroke-linejoin="round"/>
</svg>
