<svg width="16" height="17" viewBox="0 0 16 17" fill="none" xmlns="http://www.w3.org/2000/svg">
<path d="M6.40303 2.99384C6.2693 3.12757 6.2693 3.34435 6.40303 3.47808C6.53679 3.61181 6.75354 3.61181 6.88729 3.47808C7.18451 3.18086 7.57962 3.01719 7.99992 3.01719C8.42021 3.01719 8.81536 3.18086 9.11257 3.47808C9.17943 3.54494 9.26706 3.57837 9.35469 3.57837C9.44231 3.57837 9.52997 3.54494 9.5968 3.47808C9.73053 3.34435 9.73053 3.12754 9.5968 2.99384C9.17025 2.56729 8.60309 2.3324 7.99989 2.3324C7.39668 2.3324 6.82958 2.56729 6.40303 2.99384Z" fill="black"/>
<path d="M5.80404 2.39472C6.39066 1.80814 7.17052 1.48509 8.00006 1.48509C8.8296 1.48509 9.60949 1.80814 10.1961 2.39472C10.263 2.46158 10.3506 2.49502 10.4382 2.49502C10.5258 2.49502 10.6135 2.46158 10.6803 2.39472C10.8141 2.26099 10.8141 2.04418 10.6803 1.91049C9.96439 1.19457 9.01251 0.800293 8.00006 0.800293C6.98764 0.800293 6.03573 1.19457 5.31978 1.91049C5.18605 2.04422 5.18605 2.26099 5.31978 2.39472C5.45351 2.52842 5.67025 2.52842 5.80404 2.39472Z" fill="black"/>
<path d="M15.1907 13.35H15.1466V5.66219C15.1466 4.95847 14.5741 4.38593 13.8704 4.38593H2.12965C1.42593 4.38593 0.853385 4.95847 0.853385 5.66219V13.3499H0.809339C0.363082 13.3499 0 13.713 0 14.1593V14.6122C0 15.4876 0.712156 16.1997 1.58755 16.1997H14.4125C15.2878 16.1997 16 15.4876 16 14.6122V14.1593C16 13.713 15.6369 13.35 15.1907 13.35ZM1.53821 5.66219C1.53821 5.33606 1.80352 5.07075 2.12965 5.07075H13.8704C14.1965 5.07075 14.4618 5.33606 14.4618 5.66219V13.3499H13.7147V6.62717C13.7147 6.18091 13.3517 5.81783 12.9054 5.81783H3.09463C2.64837 5.81783 2.28529 6.18091 2.28529 6.62717V13.3499H1.53821V5.66219ZM7.09485 11.4818C7.367 11.62 7.67443 11.6985 7.99997 11.6985C8.33052 11.6985 8.64233 11.6176 8.91754 11.4755C8.9383 11.4897 8.96078 11.502 8.98515 11.5117C9.80006 11.8339 10.3929 12.5191 10.6001 13.35H5.40053C5.61644 12.4934 6.24896 11.7852 7.09485 11.4818ZM6.67841 9.69207C6.67841 8.96336 7.27125 8.37049 7.99997 8.37049C8.72868 8.37049 9.32156 8.96336 9.32156 9.69207C9.32156 10.4208 8.72868 11.0137 7.99997 11.0137C7.27125 11.0137 6.67841 10.4208 6.67841 9.69207ZM11.3014 13.35C11.1016 12.3321 10.4468 11.4693 9.51832 11.0015C9.82207 10.6497 10.0064 10.1922 10.0064 9.69207C10.0064 8.58574 9.10633 7.68566 8 7.68566C6.89367 7.68566 5.99362 8.58574 5.99362 9.69207C5.99362 10.1922 6.17802 10.6499 6.48184 11.0016C5.56218 11.4672 4.90014 12.3357 4.69893 13.35H2.97012V6.62717C2.97012 6.5585 3.02596 6.50266 3.09463 6.50266H12.9054C12.9741 6.50266 13.0299 6.5585 13.0299 6.62717V13.3499L11.3014 13.35ZM15.3152 14.6122C15.3152 15.1099 14.9102 15.5149 14.4125 15.5149H1.58755C1.08977 15.5149 0.684825 15.1099 0.684825 14.6122V14.1593C0.684825 14.0906 0.740669 14.0348 0.809339 14.0348H15.1907C15.2593 14.0348 15.3152 14.0906 15.3152 14.1593V14.6122Z" fill="black"/>
</svg>
