<svg width="16" height="17" viewBox="0 0 16 17" fill="none" xmlns="http://www.w3.org/2000/svg">
<g clip-path="url(#clip0_128_407)">
<path d="M14.75 10.4396V6.71284L15.0248 6.64103C15.2311 6.58709 15.375 6.40075 15.375 6.1875V2.84375C15.375 2.58488 15.1651 2.375 14.9062 2.375H10.8438V2.03203C10.8438 1.18728 10.1565 0.5 9.31175 0.5H6.06325C5.2185 0.5 4.53125 1.18728 4.53125 2.03203V2.375H0.46875C0.209875 2.375 0 2.58488 0 2.84375V6.1875C0 6.40075 0.143906 6.58709 0.350219 6.64103L0.625 6.71284V12.3628C0.625 13.2656 1.35944 14 2.26219 14H9.28706C9.68959 15.4403 11.0137 16.5 12.5807 16.5C14.4661 16.5 16 14.9661 16 13.0807C16 12.0181 15.5127 11.0672 14.75 10.4396ZM5.46875 2.03203C5.46875 1.70422 5.73544 1.4375 6.06325 1.4375H9.31172C9.63956 1.4375 9.90625 1.70422 9.90625 2.03203V2.375H5.46875V2.03203ZM0.9375 3.3125H14.4375V5.82553L9.09375 7.22206V6.78125C9.09375 6.52238 8.88387 6.3125 8.625 6.3125H6.75C6.49113 6.3125 6.28125 6.52238 6.28125 6.78125V7.22206L0.9375 5.82553V3.3125ZM8.15625 7.25V8.65625C8.15625 8.91472 7.94597 9.125 7.6875 9.125C7.42903 9.125 7.21875 8.91472 7.21875 8.65625V7.25H8.15625ZM1.5625 12.3628V6.95784L6.28125 8.19106V8.65625C6.28125 9.43166 6.91209 10.0625 7.6875 10.0625C8.46291 10.0625 9.09375 9.43166 9.09375 8.65625V8.19106L13.8125 6.95784V9.89103C13.4301 9.74284 13.0148 9.66138 12.5807 9.66138C10.7014 9.66138 9.17147 11.1854 9.16159 13.0625H2.26219C1.87637 13.0625 1.5625 12.7486 1.5625 12.3628ZM12.5807 15.5625C11.2122 15.5625 10.0989 14.4492 10.0989 13.0807C10.0989 11.7122 11.2122 10.5989 12.5807 10.5989C13.9492 10.5989 15.0625 11.7122 15.0625 13.0807C15.0625 14.4492 13.9492 15.5625 12.5807 15.5625Z" fill="black"/>
<path d="M13.2785 12.1407L12.3928 13.0263L11.8827 12.5163C11.6997 12.3332 11.4029 12.3332 11.2198 12.5163C11.0368 12.6994 11.0368 12.9962 11.2198 13.1792L12.0613 14.0207C12.1528 14.1122 12.2728 14.158 12.3928 14.158C12.5127 14.158 12.6327 14.1122 12.7242 14.0207L13.9413 12.8036C14.1244 12.6205 14.1244 12.3237 13.9413 12.1407C13.7583 11.9576 13.4615 11.9576 13.2785 12.1407Z" fill="black"/>
</g>
<defs>
<clipPath id="clip0_128_407">
<rect width="16" height="16" fill="white" transform="translate(0 0.5)"/>
</clipPath>
</defs>
</svg>
