<svg width="32" height="32" viewBox="0 0 32 32" fill="none" xmlns="http://www.w3.org/2000/svg">
<rect width="32" height="32" fill="#9C9C9C"/>
<path d="M23.7814 14.8819C21.8694 11.461 19.893 8.238 17.6226 12.9658C17.5319 13.1434 17.4483 13.3699 17.3628 13.6016C17.1558 14.163 16.9375 14.7548 16.5785 14.7548V14.7488C16.2196 14.7488 16.0013 14.157 15.7943 13.5957C15.7088 13.3639 15.6252 13.1374 15.5345 12.9598C13.264 8.232 11.2876 11.455 9.3756 14.8759L9.23869 15.121C9.14468 15.2892 9.05535 15.4491 8.97521 15.5941L8.98974 15.5847L6 20.8536C7.20379 21.5987 8.76264 21.5705 10.0166 20.9679C10.6131 20.721 11.0981 20.2933 11.5426 19.7283C11.7784 19.4288 12.261 18.6 12.9904 17.2418C13.1274 17.5081 13.2615 17.7844 13.3962 18.0621C14.1851 19.6884 14.9983 21.3649 16.5785 21.3949V21.4009C18.1587 21.3709 18.972 19.6943 19.7609 18.0681C20.7645 15.9992 21.7285 14.0119 24.1818 15.6C24.0995 15.4511 24.0076 15.2866 23.9107 15.1133L23.9102 15.1123L23.7814 14.8819Z" fill="black"/>
<path d="M26 19.3726C26 20.4928 25.1119 21.4009 24.0165 21.4009C22.9211 21.4009 22.0331 20.4928 22.0331 19.3726C22.0331 18.2524 22.9211 17.3443 24.0165 17.3443C25.1119 17.3443 26 18.2524 26 19.3726Z" fill="black"/>
</svg>
