<svg width="133" height="24" viewBox="0 0 133 24" fill="none" xmlns="http://www.w3.org/2000/svg">
<path fill-rule="evenodd" clip-rule="evenodd" d="M48.3385 17.7053C48.276 17.5368 48.1153 17.4229 47.9357 17.4229H46.1223C46.0315 17.4229 45.9436 17.4528 45.8705 17.5054C42.2125 20.1697 37.3868 21.6358 32.2838 21.6358C27.1806 21.6358 22.3551 20.1697 18.6966 17.5054C18.6232 17.4528 18.5353 17.4229 18.4448 17.4229H16.6317C16.4521 17.4229 16.2914 17.5368 16.2289 17.7053C16.1669 17.8738 16.2171 18.0645 16.3536 18.181C20.4132 21.6456 26.2195 23.6331 32.2838 23.6331C38.3476 23.6331 44.1544 21.6456 48.214 18.181C48.3506 18.0645 48.4007 17.8738 48.3385 17.7053Z" fill="#8DC63F"/>
<path fill-rule="evenodd" clip-rule="evenodd" d="M68.2309 13.437C68.2309 14.1501 67.6544 14.728 66.9431 14.728C66.2306 14.728 65.6541 14.1501 65.6541 13.437C65.6541 12.7227 66.2306 12.1447 66.9431 12.1447C67.6544 12.1447 68.2309 12.7227 68.2309 13.437Z" fill="#662D91"/>
<path fill-rule="evenodd" clip-rule="evenodd" d="M111.25 13.437C111.25 14.1501 110.673 14.728 109.961 14.728C109.25 14.728 108.673 14.1501 108.673 13.437C108.673 12.7227 109.25 12.1447 109.961 12.1447C110.673 12.1447 111.25 12.7227 111.25 13.437Z" fill="#662D91"/>
<path fill-rule="evenodd" clip-rule="evenodd" d="M118.875 12.1388C118.158 12.5894 117.279 12.8152 116.258 12.8152C116.032 12.8152 115.795 12.7886 115.553 12.7366C115.315 12.684 115.065 12.5962 114.809 12.4732C114.62 12.3815 114.464 12.2482 114.339 12.0652C114.223 11.9011 114.17 11.7072 114.17 11.4704C114.17 11.0266 114.321 10.7354 114.654 10.5193C114.958 10.3206 115.614 10.0548 117.014 9.91056C117.633 9.85794 118.105 9.81005 118.459 9.76452C118.841 9.7116 119.272 9.61019 119.74 9.45498C119.756 9.44789 119.776 9.44404 119.788 9.43813V10.4906C119.788 11.2235 119.5 11.7471 118.875 12.1388ZM120.651 4.1181C119.849 3.50968 118.73 3.20132 117.337 3.20132C116.078 3.20132 115.018 3.48957 114.181 4.05868C113.313 4.64848 112.743 5.48484 112.482 6.54441C112.43 6.76526 112.479 6.99704 112.617 7.17413C112.757 7.35033 112.967 7.45262 113.192 7.45262H113.92C114.241 7.45262 114.523 7.24567 114.617 6.93821C114.829 6.25971 115.341 5.35683 117.337 5.35683C117.823 5.35683 118.265 5.40443 118.648 5.49903C118.954 5.57472 119.225 5.7388 119.476 5.99807C119.692 6.21921 119.788 6.49977 119.788 6.87464C119.788 7.03991 119.744 7.11441 119.712 7.15609C119.682 7.19482 119.575 7.29327 119.273 7.38906C118.945 7.49135 118.61 7.57324 118.279 7.62291C117.918 7.67937 117.423 7.73791 116.814 7.7997C116.182 7.8535 115.621 7.93717 115.145 8.04833C114.652 8.16304 114.159 8.33983 113.687 8.57368C113.134 8.84626 112.701 9.23621 112.396 9.73348C112.095 10.2281 111.945 10.8179 111.945 11.4905C111.945 12.6142 112.428 13.5333 113.341 14.1462C114.176 14.7061 115.161 14.9896 116.258 14.9896C117.315 14.9896 118.272 14.809 119.101 14.4498C119.345 14.3452 119.575 14.2201 119.788 14.0894C119.79 14.4924 120.115 14.8176 120.52 14.8176H121.229C121.631 14.8176 121.961 14.4903 121.961 14.0865V6.87464C121.961 5.70095 121.519 4.77383 120.651 4.1181Z" fill="#662D91"/>
<path fill-rule="evenodd" clip-rule="evenodd" d="M78.5001 10.1175H77.7679C77.432 10.1175 77.1339 10.3274 77.0189 10.6426C76.7853 11.2785 76.422 11.7619 75.9018 12.1181C75.378 12.4791 74.7667 12.6541 74.0404 12.6541C73.1226 12.6541 72.3591 12.318 71.7051 11.6274C71.0398 10.9243 70.7139 10.1025 70.7139 9.11679C70.7139 8.10216 71.0398 7.26461 71.7062 6.5533C72.3621 5.85796 73.1238 5.52064 74.0404 5.52064C74.7307 5.52064 75.3211 5.69477 75.8463 6.05397C76.3748 6.4179 76.7523 6.90245 77.0097 7.53808C77.1312 7.8417 77.4246 8.04067 77.749 8.04067H78.5001C78.7588 8.04067 79.0006 7.91325 79.1516 7.70216C79.3026 7.49137 79.3418 7.22086 79.2586 6.97607C78.8688 5.8352 78.2079 4.91014 77.2872 4.23076C76.3654 3.54813 75.2698 3.20105 74.0404 3.20105C72.4921 3.20105 71.153 3.78789 70.056 4.94591C68.9687 6.09092 68.4202 7.49432 68.4202 9.11679C68.4202 10.7144 68.9728 12.1001 70.0601 13.2321C71.1551 14.3753 72.493 14.9551 74.0404 14.9551C75.2689 14.9551 76.3654 14.608 77.297 13.9265C78.2229 13.2454 78.8847 12.318 79.2607 11.1709C79.3418 10.9261 79.3005 10.6586 79.1495 10.4486C78.9976 10.2399 78.7588 10.1175 78.5001 10.1175Z" fill="#662D91"/>
<path fill-rule="evenodd" clip-rule="evenodd" d="M85.5398 12.691C84.6247 12.691 83.8627 12.3525 83.208 11.6574C82.5401 10.9461 82.2165 10.1156 82.2165 9.11698C82.2165 8.08933 82.5442 7.23671 83.2118 6.51269C83.8659 5.80729 84.6279 5.46317 85.5398 5.46317C86.454 5.46317 87.2169 5.80729 87.8695 6.51269C88.5404 7.23671 88.863 8.08933 88.863 9.11698C88.863 10.1156 88.5416 10.9461 87.8736 11.6574C87.2207 12.3525 86.4549 12.691 85.5398 12.691ZM85.5398 3.20123C83.9951 3.20123 82.6533 3.7931 81.5563 4.95763C80.4722 6.10973 79.9216 7.50722 79.9216 9.11698C79.9216 10.7143 80.4722 12.1 81.563 13.232C82.6574 14.3752 83.996 14.955 85.5398 14.955C87.0986 14.955 88.4434 14.3752 89.5389 13.232C90.625 12.1 91.1789 10.7143 91.1789 9.11698C91.1789 7.50722 90.6262 6.10973 89.5445 4.95763C88.4472 3.7931 87.1007 3.20123 85.5398 3.20123Z" fill="#662D91"/>
<path fill-rule="evenodd" clip-rule="evenodd" d="M103.275 3.2012C102.356 3.2012 101.531 3.43978 100.826 3.90837C100.512 4.11828 100.234 4.36306 99.9929 4.64156C99.7458 4.36395 99.4583 4.12212 99.1348 3.9134C98.4064 3.44156 97.565 3.2012 96.6382 3.2012C95.7641 3.2012 94.9891 3.40401 94.3371 3.79692C94.1952 3.58494 93.9522 3.4457 93.6762 3.4457H92.9817C92.5393 3.4457 92.1831 3.80578 92.1831 4.24865V13.9267C92.1831 14.3702 92.5393 14.7282 92.9817 14.7282H93.6762C94.1168 14.7282 94.476 14.3702 94.476 13.9267V7.68842C94.476 7.03978 94.6727 6.52951 95.0826 6.12478C95.4951 5.71975 96.0012 5.52079 96.6382 5.52079C97.2869 5.52079 97.8042 5.71975 98.212 6.12478C98.6199 6.52951 98.8172 7.03978 98.8172 7.68842V13.9267C98.8172 14.3702 99.1767 14.7282 99.619 14.7282H100.313C100.754 14.7282 101.114 14.3702 101.114 13.9267V7.68842C101.114 7.03978 101.311 6.52951 101.718 6.12478C102.129 5.71975 102.638 5.52079 103.275 5.52079C103.922 5.52079 104.44 5.71975 104.848 6.12478C105.255 6.52951 105.454 7.03978 105.454 7.68842V13.9267C105.454 14.3702 105.811 14.7282 106.256 14.7282H106.949C107.388 14.7282 107.749 14.3702 107.749 13.9267V7.68842C107.749 6.40505 107.32 5.32862 106.474 4.47925C105.627 3.63165 104.552 3.2012 103.275 3.2012Z" fill="#662D91"/>
<path fill-rule="evenodd" clip-rule="evenodd" d="M131.952 3.44574H131.258C130.819 3.44574 130.457 3.80583 130.457 4.2487V10.0917C130.457 10.8548 130.226 11.4593 129.747 11.9409C129.267 12.4214 128.659 12.654 127.887 12.654C127.137 12.654 126.535 12.4214 126.048 11.9359C125.567 11.4567 125.331 10.8548 125.331 10.0917V4.2487C125.331 3.80583 124.971 3.44574 124.53 3.44574H123.837C123.395 3.44574 123.036 3.80583 123.036 4.2487V10.0917C123.036 11.4854 123.501 12.6564 124.413 13.572C125.328 14.4902 126.495 14.955 127.887 14.955C128.901 14.955 129.788 14.7126 130.524 14.2419C130.647 14.5272 130.931 14.7282 131.258 14.7282H131.952C132.394 14.7282 132.753 14.3702 132.753 13.9267V4.2487C132.753 3.80583 132.394 3.44574 131.952 3.44574Z" fill="#662D91"/>
<path fill-rule="evenodd" clip-rule="evenodd" d="M95.9449 20.9406C95.9449 20.3682 95.7809 19.907 95.4595 19.5685C95.1321 19.2262 94.6827 19.0512 94.1162 19.0512C93.7697 19.0512 93.4533 19.131 93.1705 19.2835C93.1168 19.3128 93.0584 19.3486 92.9988 19.3897L92.9502 19.4237V17.6578C92.9502 17.5257 92.8428 17.4148 92.7098 17.4148H92.4303C92.2973 17.4148 92.1873 17.5257 92.1873 17.6578V23.2983C92.1873 23.4322 92.2973 23.5396 92.4303 23.5396H92.7098C92.8428 23.5396 92.9502 23.4322 92.9502 23.2983V20.9406C92.9502 20.6115 93.0584 20.3464 93.2807 20.1338C93.5078 19.9156 93.7785 19.8095 94.1088 19.8095C94.4651 19.8095 94.7272 19.9029 94.9098 20.0959C95.0923 20.2881 95.1829 20.5648 95.1829 20.9406V23.2983C95.1829 23.4322 95.2908 23.5396 95.4238 23.5396H95.7048C95.8378 23.5396 95.9449 23.4322 95.9449 23.2983V20.9406Z" fill="#662D91"/>
<path fill-rule="evenodd" clip-rule="evenodd" d="M97.3547 20.7772C97.44 20.5469 97.5709 20.3518 97.7576 20.1835C98.0215 19.9417 98.3161 19.8243 98.6685 19.8243C99.0189 19.8243 99.3146 19.9417 99.5803 20.1835C99.767 20.3506 99.8988 20.5457 99.9873 20.7772L100.003 20.82H97.3388L97.3547 20.7772ZM100.76 22.159C100.781 22.0857 100.771 22.0035 100.725 21.9429C100.68 21.8796 100.605 21.8436 100.529 21.8436H100.233C100.134 21.8436 100.041 21.9071 100.009 22.002C99.7906 22.5921 99.3798 22.8662 98.716 22.8662C98.3034 22.8662 97.9658 22.7249 97.6803 22.4342C97.4571 22.2057 97.3199 21.9402 97.2692 21.6198L97.2642 21.584H100.611C100.743 21.584 100.851 21.4776 100.854 21.3472C100.865 20.7662 100.663 20.235 100.249 19.7679C99.8284 19.2931 99.2975 19.0512 98.6685 19.0512C98.0681 19.0512 97.547 19.281 97.1215 19.7321C96.6977 20.1785 96.4824 20.7234 96.4824 21.3581C96.4824 21.9858 96.7006 22.5274 97.1303 22.9667C97.5609 23.4072 98.0949 23.6313 98.716 23.6313C99.2161 23.6313 99.6517 23.5039 100.001 23.252C100.353 23.0007 100.606 22.6323 100.76 22.159Z" fill="#662D91"/>
<path fill-rule="evenodd" clip-rule="evenodd" d="M102.223 17.6579C102.223 17.5258 102.113 17.4149 101.982 17.4149H101.701C101.568 17.4149 101.461 17.5258 101.461 17.6579V23.2981C101.461 23.4321 101.568 23.5397 101.701 23.5397H101.982C102.113 23.5397 102.223 23.4321 102.223 23.2981V17.6579Z" fill="#662D91"/>
<path fill-rule="evenodd" clip-rule="evenodd" d="M103.97 17.6579C103.97 17.5258 103.859 17.4149 103.73 17.4149H103.448C103.315 17.4149 103.207 17.5258 103.207 17.6579V23.2981C103.207 23.4321 103.315 23.5397 103.448 23.5397H103.73C103.859 23.5397 103.97 23.4321 103.97 23.2981V17.6579Z" fill="#662D91"/>
<path fill-rule="evenodd" clip-rule="evenodd" d="M107.76 22.4378C107.482 22.737 107.153 22.8825 106.762 22.8825C106.367 22.8825 106.041 22.737 105.76 22.4378C105.476 22.1363 105.338 21.7818 105.338 21.3582C105.338 20.9215 105.476 20.5605 105.762 20.2528C106.041 19.9497 106.367 19.8025 106.762 19.8025C107.153 19.8025 107.481 19.9497 107.759 20.2528C108.045 20.5594 108.183 20.9215 108.183 21.3582C108.183 21.7818 108.045 22.1381 107.76 22.4378ZM108.318 19.736C107.888 19.2834 107.366 19.0513 106.762 19.0513C106.16 19.0513 105.638 19.2834 105.213 19.736C104.79 20.1842 104.576 20.7299 104.576 21.3582C104.576 21.9811 104.79 22.5209 105.216 22.9614C105.638 23.4055 106.16 23.6313 106.762 23.6313C107.366 23.6313 107.888 23.4055 108.315 22.9614C108.739 22.5209 108.952 21.9811 108.952 21.3582C108.952 20.7299 108.739 20.1842 108.318 19.736Z" fill="#662D91"/>
<path fill-rule="evenodd" clip-rule="evenodd" d="M113.92 19.3925C113.92 19.2604 113.815 19.1519 113.68 19.1519H112.878V19.1211C112.884 18.8296 112.949 18.6079 113.076 18.4607C113.194 18.3256 113.394 18.2608 113.668 18.2765C113.737 18.2792 113.798 18.2585 113.846 18.2118C113.895 18.1671 113.92 18.1038 113.92 18.0355V17.778C113.92 17.6515 113.828 17.5483 113.7 17.5386C113.214 17.4957 112.82 17.6267 112.532 17.9253C112.25 18.2159 112.108 18.6177 112.108 19.1211V19.1519H111.821C111.688 19.1519 111.577 19.2604 111.577 19.3925V19.6743C111.577 19.8064 111.688 19.9167 111.821 19.9167H112.108V23.2982C112.108 23.4321 112.217 23.5395 112.351 23.5395H112.636C112.771 23.5395 112.878 23.4321 112.878 23.2982V19.9167H113.68C113.815 19.9167 113.92 19.8064 113.92 19.6743V19.3925Z" fill="#662D91"/>
<path fill-rule="evenodd" clip-rule="evenodd" d="M118.043 19.3925C118.043 19.2604 117.936 19.1519 117.802 19.1519H117.521C117.388 19.1519 117.28 19.2604 117.28 19.3925V21.7523C117.28 22.0816 117.178 22.3459 116.97 22.555C116.76 22.7646 116.495 22.8663 116.161 22.8663C115.836 22.8663 115.576 22.7646 115.364 22.5538C115.153 22.3459 115.049 22.0822 115.049 21.7523V19.3925C115.049 19.2604 114.942 19.1519 114.807 19.1519H114.527C114.396 19.1519 114.287 19.2604 114.287 19.3925V21.7523C114.287 22.2924 114.467 22.7451 114.82 23.0978C115.173 23.4513 115.623 23.6314 116.161 23.6314C116.585 23.6314 116.947 23.5267 117.237 23.3236L117.276 23.2958L117.284 23.3437C117.305 23.457 117.407 23.5394 117.521 23.5394H117.802C117.936 23.5394 118.043 23.4321 118.043 23.2982V19.3925Z" fill="#662D91"/>
<path fill-rule="evenodd" clip-rule="evenodd" d="M119.431 23.1527C119.718 23.4495 120.107 23.5793 120.6 23.5391C120.725 23.5284 120.819 23.4241 120.819 23.2981V23.0412C120.819 22.9747 120.792 22.9102 120.746 22.8662C120.697 22.8183 120.633 22.7929 120.571 22.7988L120.505 22.8C120.255 22.8 120.078 22.737 119.965 22.6087C119.833 22.4564 119.768 22.2347 119.768 21.9494V19.9169H120.58C120.712 19.9169 120.819 19.8066 120.819 19.6742V19.3924C120.819 19.2603 120.712 19.1518 120.58 19.1518H119.768V18.5599C119.768 18.4248 119.66 18.3175 119.529 18.3175H119.247C119.115 18.3175 119.007 18.4248 119.007 18.5599V19.1518H118.717C118.585 19.1518 118.475 19.2603 118.475 19.3924V19.6742C118.475 19.8066 118.585 19.9169 118.717 19.9169H119.007V21.9494C119.007 22.4564 119.15 22.8612 119.431 23.1527Z" fill="#662D91"/>
<path fill-rule="evenodd" clip-rule="evenodd" d="M125.093 19.3925C125.093 19.2604 124.985 19.1519 124.85 19.1519H124.571C124.437 19.1519 124.331 19.2604 124.331 19.3925V21.7523C124.331 22.0822 124.23 22.3459 124.02 22.5538C123.809 22.7646 123.544 22.8663 123.211 22.8663C122.884 22.8663 122.626 22.7646 122.411 22.5538C122.202 22.3442 122.099 22.0816 122.099 21.7523V19.3925C122.099 19.2604 121.99 19.1519 121.856 19.1519H121.576C121.443 19.1519 121.337 19.2604 121.337 19.3925V21.7523C121.337 22.2907 121.514 22.7439 121.87 23.0978C122.221 23.4513 122.671 23.6314 123.211 23.6314C123.634 23.6314 123.995 23.5267 124.286 23.3236L124.326 23.2958L124.335 23.3437C124.355 23.457 124.455 23.5394 124.571 23.5394H124.85C124.985 23.5394 125.093 23.4321 125.093 23.2982V19.3925Z" fill="#662D91"/>
<path fill-rule="evenodd" clip-rule="evenodd" d="M126.772 20.9406C126.772 20.5734 126.889 20.2899 127.133 20.0738C127.351 19.8574 127.666 19.7696 128.089 19.8083C128.097 19.8095 128.106 19.8095 128.115 19.8095C128.172 19.8095 128.229 19.7876 128.273 19.7465C128.324 19.701 128.349 19.6374 128.349 19.5685V19.3087C128.349 19.1874 128.262 19.0843 128.139 19.0704C127.636 19.0098 127.192 19.1118 126.816 19.3678L126.776 19.3953L126.768 19.3486C126.747 19.2345 126.648 19.1517 126.529 19.1517H126.242C126.11 19.1517 126.002 19.2602 126.002 19.3926V23.2983C126.002 23.4322 126.11 23.5396 126.242 23.5396H126.529C126.663 23.5396 126.772 23.4322 126.772 23.2983V20.9406Z" fill="#662D91"/>
<path fill-rule="evenodd" clip-rule="evenodd" d="M129.313 20.7772C129.399 20.5487 129.531 20.3532 129.718 20.1835C129.982 19.9417 130.281 19.8243 130.629 19.8243C130.978 19.8243 131.278 19.9417 131.542 20.1835C131.726 20.3506 131.862 20.5513 131.949 20.7772L131.964 20.82H129.301L129.313 20.7772ZM132.721 22.159C132.743 22.0857 132.73 22.0035 132.684 21.9429C132.641 21.8796 132.566 21.8436 132.491 21.8436H132.195C132.093 21.8436 132.004 21.9053 131.969 22.002C131.751 22.5921 131.34 22.8662 130.674 22.8662C130.264 22.8662 129.928 22.7249 129.641 22.4342C129.415 22.2045 129.282 21.9385 129.23 21.6198L129.224 21.584H132.574C132.705 21.584 132.813 21.4776 132.816 21.3472C132.824 20.7662 132.621 20.2344 132.21 19.7679C131.791 19.2931 131.257 19.0512 130.629 19.0512C130.028 19.0512 129.508 19.281 129.082 19.7321C128.658 20.1785 128.445 20.7234 128.445 21.3581C128.445 21.9858 128.661 22.5274 129.092 22.9667C129.523 23.4072 130.056 23.6313 130.674 23.6313C131.179 23.6313 131.61 23.5039 131.96 23.252C132.312 23.0007 132.567 22.6323 132.721 22.159Z" fill="#662D91"/>
<path fill-rule="evenodd" clip-rule="evenodd" d="M5.40788 3.44864H3.48572V1.29224C3.48572 0.89254 3.16133 0.564972 2.76145 0.564972H2.05604C1.65704 0.564972 1.33265 0.89254 1.33265 1.29224V3.44864H0.72339C0.323506 3.44864 0 3.77325 0 4.17502V4.88131C0 5.28101 0.323506 5.6074 0.72339 5.6074H1.33265V10.607C1.33265 11.9172 1.70275 12.9635 2.43116 13.7177C3.09291 14.4 3.96405 14.7471 5.02392 14.7471C5.16872 14.7471 5.31853 14.7415 5.46922 14.7282C5.84345 14.6962 6.13304 14.3823 6.13304 14.0041V13.3555C6.13304 13.1574 6.05194 12.9688 5.90892 12.8313C5.765 12.6939 5.57273 12.6206 5.37721 12.6303C4.70749 12.6593 4.23595 12.5159 3.95432 12.1904C3.64379 11.8333 3.48572 11.2993 3.48572 10.607V5.6074H5.40788C5.80777 5.6074 6.13304 5.28101 6.13304 4.88131V4.17502C6.13304 3.77325 5.80777 3.44864 5.40788 3.44864Z" fill="#662D91"/>
<path fill-rule="evenodd" clip-rule="evenodd" d="M12.7824 3.24278C11.5093 3.09673 10.3811 3.34123 9.41968 3.98513C9.33534 3.67678 9.0543 3.44854 8.719 3.44854H7.99767C7.5969 3.44854 7.27222 3.77315 7.27222 4.17493V14.004C7.27222 14.4058 7.5969 14.731 7.99767 14.731H8.719C9.12006 14.731 9.44445 14.4058 9.44445 14.004V8.06732C9.44445 7.18188 9.72136 6.50368 10.2879 5.99459C10.2967 5.9872 10.3047 5.97951 10.3126 5.97153C10.8435 5.44913 11.6067 5.24248 12.6335 5.33768C12.8379 5.35482 13.0375 5.28801 13.1882 5.14965C13.3392 5.01247 13.4232 4.81735 13.4232 4.61366V3.96502C13.4232 3.59488 13.1487 3.28476 12.7824 3.24278Z" fill="#662D91"/>
<path fill-rule="evenodd" clip-rule="evenodd" d="M25.8365 3.44864H25.1329C24.7342 3.44864 24.4077 3.77325 24.4077 4.17502V14.0041C24.4077 14.4059 24.7342 14.7311 25.1329 14.7311H25.8365C26.2385 14.7311 26.5617 14.4059 26.5617 14.0041V4.17502C26.5617 3.77325 26.2385 3.44864 25.8365 3.44864Z" fill="#662D91"/>
<path fill-rule="evenodd" clip-rule="evenodd" d="M19.9256 12.0721C19.2152 12.5177 18.342 12.7435 17.3307 12.7435C17.1037 12.7435 16.8675 12.7169 16.6271 12.6649C16.3912 12.6138 16.1441 12.5248 15.891 12.4036C15.7005 12.314 15.5478 12.1806 15.4236 11.9985C15.3095 11.8353 15.2561 11.6426 15.2561 11.4087C15.2561 10.9691 15.403 10.6776 15.7345 10.463C16.0367 10.2658 16.6908 10.0021 18.0768 9.86195C18.6923 9.80844 19.1606 9.76054 19.5089 9.71354C19.8908 9.66298 20.3196 9.56069 20.784 9.40726C20.7997 9.40252 20.8165 9.39632 20.8324 9.3904V10.4349C20.8324 11.1642 20.5449 11.6843 19.9256 12.0721ZM21.6888 4.11029C20.8902 3.50541 19.7817 3.20001 18.3965 3.20001C17.1491 3.20001 16.0966 3.48649 15.267 4.05057C14.4065 4.63652 13.8391 5.46697 13.5799 6.52063C13.5274 6.73734 13.577 6.96616 13.7141 7.14236C13.8518 7.31827 14.0612 7.42086 14.2835 7.42086H15.0069C15.3245 7.42086 15.6044 7.21391 15.6985 6.91058C15.9087 6.23623 16.4169 5.33985 18.3965 5.33985C18.8807 5.33985 19.3193 5.38774 19.6994 5.48117C20.004 5.55774 20.273 5.71797 20.521 5.97636C20.7342 6.1972 20.8324 6.47363 20.8324 6.84672C20.8324 7.0111 20.7887 7.08471 20.7551 7.1264C20.7242 7.16394 20.6221 7.26091 20.3204 7.35729C19.9949 7.45958 19.6625 7.53822 19.3331 7.58907C18.976 7.64465 18.4817 7.70437 17.8775 7.76498C17.2526 7.81849 16.6967 7.90038 16.2234 8.00977C15.7312 8.12507 15.244 8.30009 14.7737 8.53275C14.226 8.80445 13.7952 9.19055 13.4947 9.68486C13.196 10.1741 13.0461 10.7604 13.0461 11.4277C13.0461 12.5425 13.5254 13.4537 14.4334 14.0648C15.262 14.6197 16.2364 14.9026 17.3307 14.9026C18.3756 14.9026 19.3243 14.7223 20.1488 14.366C20.3939 14.2599 20.6192 14.1387 20.8324 14.0068C20.8345 14.4071 21.1571 14.7311 21.5578 14.7311H22.2612C22.6614 14.7311 22.9858 14.4059 22.9858 14.0042V6.84672C22.9858 5.68309 22.549 4.76158 21.6888 4.11029Z" fill="#662D91"/>
<path fill-rule="evenodd" clip-rule="evenodd" d="M32.9739 3.20007C32.081 3.20007 31.262 3.40022 30.5419 3.7952C30.4039 3.87058 30.2717 3.951 30.1438 4.0388C30.0804 3.70236 29.7857 3.44871 29.4325 3.44871H28.7279C28.3281 3.44871 28.0037 3.77302 28.0037 4.17509V14.0039C28.0037 14.406 28.3281 14.7309 28.7279 14.7309H29.4325C29.8323 14.7309 30.1567 14.406 30.1567 14.0039V8.06748C30.1567 7.27457 30.4157 6.63688 30.9535 6.11981C31.4973 5.59446 32.1523 5.33961 32.955 5.33961C33.8191 5.33961 34.4525 5.56253 34.884 6.01929C35.3272 6.48877 35.5428 7.15927 35.5428 8.06748V14.0039C35.5428 14.406 35.8675 14.7309 36.2671 14.7309H36.9719C37.3715 14.7309 37.6961 14.406 37.6961 14.0039V8.06748C37.6961 6.5952 37.2741 5.40643 36.4387 4.53104C35.5956 3.64885 34.4287 3.20007 32.9739 3.20007Z" fill="#662D91"/>
<path fill-rule="evenodd" clip-rule="evenodd" d="M40.4893 3.44864H39.7856C39.3858 3.44864 39.0623 3.77325 39.0623 4.17502V14.0041C39.0623 14.4059 39.3858 14.7311 39.7856 14.7311H40.4893C40.8909 14.7311 41.2147 14.4059 41.2147 14.0041V4.17502C41.2147 3.77325 40.8909 3.44864 40.4893 3.44864Z" fill="#662D91"/>
<path fill-rule="evenodd" clip-rule="evenodd" d="M47.6265 3.20007C46.7327 3.20007 45.9149 3.40022 45.1956 3.7952C45.0567 3.87058 44.9237 3.951 44.7975 4.0388C44.7329 3.70236 44.4383 3.44871 44.085 3.44871H43.3808C42.9809 3.44871 42.6562 3.77302 42.6562 4.17509V14.0039C42.6562 14.406 42.9809 14.7309 43.3808 14.7309H44.085C44.4852 14.7309 44.8096 14.406 44.8096 14.0039V8.06748C44.8096 7.27457 45.0706 6.63688 45.6061 6.11981C46.1499 5.59446 46.804 5.33961 47.6079 5.33961C48.474 5.33961 49.1063 5.56253 49.5386 6.01929C49.9813 6.48877 50.1966 7.15927 50.1966 8.06748V14.0039C50.1966 14.406 50.5201 14.7309 50.9188 14.7309H51.6256C52.0252 14.7309 52.3499 14.406 52.3499 14.0039V8.06748C52.3499 6.5952 51.9261 5.40643 51.0916 4.53104C50.2482 3.64885 49.0824 3.20007 47.6265 3.20007Z" fill="#662D91"/>
<path fill-rule="evenodd" clip-rule="evenodd" d="M26.7732 1.29224C26.7732 2.00532 26.1976 2.5833 25.4851 2.5833C24.7738 2.5833 24.1973 2.00532 24.1973 1.29224C24.1973 0.577975 24.7738 0 25.4851 0C26.1976 0 26.7732 0.577975 26.7732 1.29224Z" fill="#662D91"/>
<path fill-rule="evenodd" clip-rule="evenodd" d="M41.4269 1.29224C41.4269 2.00532 40.8504 2.5833 40.1391 2.5833C39.4266 2.5833 38.8501 2.00532 38.8501 1.29224C38.8501 0.577975 39.4266 0 40.1391 0C40.8504 0 41.4269 0.577975 41.4269 1.29224Z" fill="#662D91"/>
<path fill-rule="evenodd" clip-rule="evenodd" d="M61.4329 11.7779C60.7829 12.4665 59.9764 12.8011 58.9699 12.8011C58.0135 12.8011 57.2167 12.4502 56.5343 11.73C55.8416 10.9968 55.5051 10.1436 55.5051 9.11776C55.5051 8.06617 55.8434 7.19611 56.5361 6.45701C57.2176 5.73062 58.0144 5.37852 58.9699 5.37852C59.9755 5.37852 60.7809 5.71584 61.4317 6.40823C62.0926 7.1154 62.4143 8.00173 62.4143 9.11776C62.4143 10.2081 62.0938 11.0784 61.4329 11.7779ZM63.844 3.44858H63.1395C62.7399 3.44858 62.4143 3.7732 62.4143 4.17497V4.41946C62.2297 4.26662 62.0342 4.12619 61.8269 3.99699C60.9785 3.4678 60.0159 3.19995 58.9699 3.19995C57.424 3.19995 56.0855 3.78709 54.989 4.94393C53.9026 6.09101 53.3521 7.49441 53.3521 9.11776C53.3521 10.7175 53.9038 12.1061 54.9911 13.247C56.0855 14.3961 57.4252 14.9788 58.9699 14.9788C60.0159 14.9788 60.9785 14.7113 61.8269 14.1818C62.0342 14.0538 62.2297 13.9127 62.4143 13.7605C62.4102 14.8916 62.1076 15.7998 61.4892 16.4564C60.877 17.1059 60.0655 17.4211 59.0076 17.4211C58.8189 17.4211 58.0265 17.4229 58.0265 17.4229C57.6266 17.4229 57.3031 17.7481 57.3031 18.1498V18.8555C57.3031 19.2561 57.6266 19.5807 58.0268 19.5807H59.0076C60.6538 19.5807 62.0094 19.0329 63.0354 17.9512C64.0516 16.8818 64.5674 15.4376 64.5674 13.7371V4.17497C64.5674 3.7732 64.243 3.44858 63.844 3.44858Z" fill="#662D91"/>
</svg>
